<svg xmlns="http://www.w3.org/2000/svg" viewBox="0 0 680 420">
  <rect width="680" height="420" rx="6" fill="#0d1b3e"/>
  <path d="M194 262 C 210 395, 506 375, 488 168" fill="none" stroke="#c9a84c" stroke-width="13" stroke-linecap="round"/>
  <path d="M206 282 L340 48 L474 282 L418 282 L340 108 L262 282 Z" fill="#dde3f0"/>
  <path d="M240 212 Q340 128 440 212" fill="none" stroke="#c9a84c" stroke-width="11" stroke-linecap="round"/>
  <line x1="340" y1="222" x2="340" y2="274" stroke="#c9a84c" stroke-width="1.5"/>
  <line x1="329" y1="230" x2="351" y2="230" stroke="#c9a84c" stroke-width="1.5"/>
  <circle cx="329" cy="230" r="2.2" fill="#c9a84c"/>
  <circle cx="351" cy="230" r="2.2" fill="#c9a84c"/>
  <line x1="329" y1="230" x2="323" y2="246" stroke="#c9a84c" stroke-width="0.9"/>
  <line x1="351" y1="230" x2="357" y2="246" stroke="#c9a84c" stroke-width="0.9"/>
  <line x1="321" y1="247" x2="359" y2="247" stroke="#c9a84c" stroke-width="1.5"/>
  <circle cx="321" cy="247" r="1.8" fill="#c9a84c"/>
  <circle cx="359" cy="247" r="1.8" fill="#c9a84c"/>
  <line x1="321" y1="247" x2="327" y2="260" stroke="#c9a84c" stroke-width="0.9"/>
  <line x1="359" y1="247" x2="353" y2="260" stroke="#c9a84c" stroke-width="0.9"/>
  <line x1="327" y1="260" x2="319" y2="274" stroke="#c9a84c" stroke-width="1.5"/>
  <line x1="353" y1="260" x2="361" y2="274" stroke="#c9a84c" stroke-width="1.5"/>
  <line x1="313" y1="274" x2="325" y2="274" stroke="#c9a84c" stroke-width="1.5"/>
  <line x1="355" y1="274" x2="367" y2="274" stroke="#c9a84c" stroke-width="1.5"/>
  <text x="340" y="334" text-anchor="middle" fill="#ffffff" font-family="Inter, sans-serif" font-size="44" font-weight="700" letter-spacing="10">ARCLINE</text>
  <line x1="152" y1="356" x2="226" y2="356" stroke="#c9a84c" stroke-width="0.9"/>
  <text x="340" y="360" text-anchor="middle" fill="#c9a84c" font-family="Inter, sans-serif" font-size="12" font-weight="500" letter-spacing="5">POWER ADVISORY</text>
  <line x1="454" y1="356" x2="528" y2="356" stroke="#c9a84c" stroke-width="0.9"/>
  <text x="340" y="388" text-anchor="middle" fill="#4a6080" font-family="Inter, sans-serif" font-size="9.5" letter-spacing="1.5">POWER SYSTEMS ADVISORY FOR AI &amp; DATA CENTER INFRASTRUCTURE</text>
</svg>
